# xmcd CD database file
#
# Track frame offsets:
#	210
#	9685
#	23417
#	32450
#	43835
#	54020
#	63262
#	74550
#	84717
#	97637
#	110590
#	124092
#	134260
#	146860
#	159112
#	170812
#	183577
#	195185
#	206015
#	218010
#	229412
#	241500
#
# Disc length: 3374 seconds
#
# Revision: 0
# Processed by: cddbd v1.5.2PL0 Copyright (c) Steve Scherf et al.
# Submitted via: Feurio! 1.68 - http://www.feurio.com
#
DISCID=250d2c16
DTITLE=Various Artist - The Goldband Blues Collection, Part 2
DYEAR=1900
DGENRE=blues
TTITLE0=Charles (Mad Dog) Sheffield - Wicked Old Fever
TTITLE1=Al Smith - Nothing Can Keep My Love From You
TTITLE2=Charles (Mad Dog) Sheffield - Clear My Nights Of Misery
TTITLE3=Thaddeus Decoulet - Come Back Baby
TTITLE4=Al Smith - I Love Her So
TTITLE5=Charles Perrywell and The Fairlanes - I Hear Someone
TTITLE6=Charles (Mad Dog) Sheffield - One Hour Thirty Minutes Too Long
TTITLE7=Elton Anderson - Keep Wanting Your Love
TTITLE8=Clarence Garlow - Pretty Little Dolly
TTITLE9=Clarence Garlow - I Don't Know
TTITLE10=Stick Herman - I'll Never Let Her Go
TTITLE11=King Charles and Left Handed Charlie - Bop Cat Stomp
TTITLE12=Left Handed Charlie - But You Thrill Me
TTITLE13=Left Handed Charlie - Honey Bee, Honey Bee
TTITLE14=Big Chenier - Don't Misunderstand Me Baby
TTITLE15=Cookie and The Cupcakes - Some Day You'll Understand [Early]
TTITLE16=Thaddeus Decoulet - Know That Isn't Right
TTITLE17=Little Bob And The Lollypops - Don't Send Me Away
TTITLE18=Juke Boy Bonner - True Love Waiting
TTITLE19=Clarence Garlow - Za Belle
TTITLE20=Juke Boy Bonner - My Time To Go
TTITLE21=Bill Parker and Ola Vaughn - Darling If You Love Me
EXTD=
EXTT0=
EXTT1=
EXTT2=
EXTT3=
EXTT4=
EXTT5=
EXTT6=
EXTT7=
EXTT8=
EXTT9=
EXTT10=
EXTT11=
EXTT12=
EXTT13=
EXTT14=
EXTT15=
EXTT16=
EXTT17=
EXTT18=
EXTT19=
EXTT20=
EXTT21=
PLAYORDER=
